<?xml version="1.0" encoding="UTF-8" standalone="no"?><!DOCTYPE svg PUBLIC "-//W3C//DTD SVG 1.1//EN" "http://www.w3.org/Graphics/SVG/1.1/DTD/svg11.dtd"><svg width="100%" height="100%" viewBox="0 0 64 64" version="1.1" xmlns="http://www.w3.org/2000/svg" xmlns:xlink="http://www.w3.org/1999/xlink" xml:space="preserve" xmlns:serif="http://www.serif.com/" style="fill-rule:evenodd;clip-rule:evenodd;stroke-linejoin:round;stroke-miterlimit:2;"><g id="Corridor_Tee_Fill"><path d="M0,20l64,0l0,24l-20,0l0,20l-24,0l0,-20l-20,0l0,-24Z"/><path d="M0,20l64,0l0,24l-20,0l0,20l-24,0l0,-20l-20,0l0,-24Zm2.083,2.083c0,0 0,19.834 0,19.834l17.917,-0c1.151,-0 2.083,0.932 2.083,2.083l0,17.917c0,-0 19.834,-0 19.834,-0l-0,-17.917c-0,-1.151 0.932,-2.083 2.083,-2.083l17.917,-0l-0,-19.834l-59.834,0Z"/></g></svg>