<?xml version="1.0" encoding="UTF-8" standalone="no"?><!DOCTYPE svg PUBLIC "-//W3C//DTD SVG 1.1//EN" "http://www.w3.org/Graphics/SVG/1.1/DTD/svg11.dtd"><svg width="100%" height="100%" viewBox="0 0 64 64" version="1.1" xmlns="http://www.w3.org/2000/svg" xmlns:xlink="http://www.w3.org/1999/xlink" xml:space="preserve" xmlns:serif="http://www.serif.com/" style="fill-rule:evenodd;clip-rule:evenodd;stroke-linejoin:round;stroke-miterlimit:2;"><g id="Room_Plus_Fill"><path d="M44,0l0,4l16,0l-0,16l4,0l0,24l-4,0l0,16l-16,-0l0,4l-24,0l0,-4l-16,0l0,-16l-4,0l0,-24l4,0l0,-16l16,0l0,-4l24,0Z"/><path d="M44,0l0,4l16,0l-0,16l4,0l0,24l-4,0l0,16l-16,-0l0,4l-24,0l0,-4l-16,0l0,-16l-4,0l0,-24l4,0l0,-16l16,0l0,-4l24,0Zm-2.083,2.083l-19.834,0l0,1.917c0,1.151 -0.932,2.083 -2.083,2.083l-13.917,0l0,13.917c0,1.151 -0.932,2.083 -2.083,2.083l-1.917,0l0,19.834l1.917,-0c1.151,-0 2.083,0.932 2.083,2.083l0,13.917l13.917,-0c1.151,-0 2.083,0.932 2.083,2.083l0,1.917l19.834,-0l-0,-1.917c-0,-1.151 0.932,-2.083 2.083,-2.083l13.917,-0l-0,-13.917c-0,-1.151 0.932,-2.083 2.083,-2.083l1.917,-0l-0,-19.834l-1.917,0c-1.151,0 -2.083,-0.932 -2.083,-2.083l-0,-13.917l-13.917,0c-1.151,0 -2.083,-0.932 -2.083,-2.083l-0,-1.917Z"/></g></svg>