<?xml version="1.0" encoding="UTF-8" standalone="no"?><!DOCTYPE svg PUBLIC "-//W3C//DTD SVG 1.1//EN" "http://www.w3.org/Graphics/SVG/1.1/DTD/svg11.dtd"><svg width="100%" height="100%" viewBox="0 0 64 64" version="1.1" xmlns="http://www.w3.org/2000/svg" xmlns:xlink="http://www.w3.org/1999/xlink" xml:space="preserve" xmlns:serif="http://www.serif.com/" style="fill-rule:evenodd;clip-rule:evenodd;stroke-linejoin:round;stroke-miterlimit:2;"><g id="Clipboard"><path d="M32,16c8.831,0 16,7.169 16,16c0,8.831 -7.169,16 -16,16c-8.831,0 -16,-7.169 -16,-16c0,-8.831 7.169,-16 16,-16Zm0,2.083c-7.681,0 -13.917,6.236 -13.917,13.917c0,7.681 6.236,13.917 13.917,13.917c7.681,-0 13.917,-6.236 13.917,-13.917c-0,-7.681 -6.236,-13.917 -13.917,-13.917Z"/><path d="M35,23l4.007,0l0.993,1l0,17l-1,1l-14,0l-1,-1l0,-17l1.014,-1l3.986,0c0,-1.656 1.344,-3 3,-3c1.656,0 3,1.344 3,3Zm-9,5l0,2l12,0l0,-2l-12,0Zm6,-7c-1.104,0 -2,0.896 -2,2c-0,1.104 0.896,2 2,2c1.104,0 2,-0.896 2,-2c0,-1.104 -0.896,-2 -2,-2Z"/><path d="M35,23l4.007,0l0.993,1l0,17l-1,1l-14,0l-1,-1l0,-17l1.014,-1l3.986,0c0,-1.656 1.344,-3 3,-3c1.656,0 3,1.344 3,3Zm-9,5l0,2l12,0l0,-2l-12,0Zm6,-7c-1.104,0 -2,0.896 -2,2c-0,1.104 0.896,2 2,2c1.104,0 2,-0.896 2,-2c0,-1.104 -0.896,-2 -2,-2Zm3,3.25c-0.49,1.174 -1.649,2 -3,2c-1.351,0 -2.51,-0.826 -3.001,-2l-3.472,-0l-0.277,0.273l-0,2.227l13.5,0l-0,-2.235l-0.263,-0.265l-3.487,0Zm3.75,7l-13.5,0l-0,9.232l0.268,0.268l12.964,0l0.268,-0.268l-0,-9.232Z"/></g></svg>