<?xml version="1.0" encoding="UTF-8" standalone="no"?><!DOCTYPE svg PUBLIC "-//W3C//DTD SVG 1.1//EN" "http://www.w3.org/Graphics/SVG/1.1/DTD/svg11.dtd"><svg width="100%" height="100%" viewBox="0 0 64 64" version="1.1" xmlns="http://www.w3.org/2000/svg" xmlns:xlink="http://www.w3.org/1999/xlink" xml:space="preserve" xmlns:serif="http://www.serif.com/" style="fill-rule:evenodd;clip-rule:evenodd;stroke-linejoin:round;stroke-miterlimit:2;"><g id="Close"><path d="M32,16c8.831,0 16,7.169 16,16c0,8.831 -7.169,16 -16,16c-8.831,0 -16,-7.169 -16,-16c0,-8.831 7.169,-16 16,-16Zm0,2.083c-7.681,0 -13.917,6.236 -13.917,13.917c0,7.681 6.236,13.917 13.917,13.917c7.681,-0 13.917,-6.236 13.917,-13.917c-0,-7.681 -6.236,-13.917 -13.917,-13.917Z"/><path d="M36.243,24.929l-4.243,4.243l-4.243,-4.243l-2.828,2.828l4.243,4.243l-4.243,4.243l2.828,2.828l4.243,-4.243l4.243,4.243l2.828,-2.828l-4.243,-4.243l4.243,-4.243l-2.828,-2.828Z"/><path d="M35.877,25.295l0.366,0.884l0.366,-0.884l2.462,2.462l-4.243,4.243l4.243,4.243l-2.828,2.828l-4.243,-4.243l-4.243,4.243l-2.828,-2.828l4.243,-4.243l-4.243,-4.243l2.828,-2.828l4.243,4.243l3.877,-3.877Zm0.366,1.402l-4.243,4.242l-4.243,-4.242c0,-0 -1.06,1.06 -1.06,1.06l4.242,4.243l-4.242,4.243c-0,-0 1.06,1.06 1.06,1.06l4.243,-4.242l4.243,4.242c-0,0 1.06,-1.06 1.06,-1.06l-4.242,-4.243c-0,0 4.242,-4.243 4.242,-4.243l-1.06,-1.06Z"/></g></svg>