<?xml version="1.0" encoding="UTF-8" standalone="no"?><!DOCTYPE svg PUBLIC "-//W3C//DTD SVG 1.1//EN" "http://www.w3.org/Graphics/SVG/1.1/DTD/svg11.dtd"><svg width="100%" height="100%" viewBox="0 0 64 64" version="1.1" xmlns="http://www.w3.org/2000/svg" xmlns:xlink="http://www.w3.org/1999/xlink" xml:space="preserve" xmlns:serif="http://www.serif.com/" style="fill-rule:evenodd;clip-rule:evenodd;stroke-linejoin:round;stroke-miterlimit:2;"><g id="Download"><path d="M32,16c8.831,0 16,7.169 16,16c0,8.831 -7.169,16 -16,16c-8.831,0 -16,-7.169 -16,-16c0,-8.831 7.169,-16 16,-16Zm0,2.083c-7.681,0 -13.917,6.236 -13.917,13.917c0,7.681 6.236,13.917 13.917,13.917c7.681,-0 13.917,-6.236 13.917,-13.917c-0,-7.681 -6.236,-13.917 -13.917,-13.917Z"/><path d="M23,32l5,0l4,5l4,-5l5,0l2,2l0,4l-2,2l-18,0l-2,-2l0,-4l2,-2Zm16,2c-1.104,0 -2,0.896 -2,2c0,1.104 0.896,2 2,2c1.104,0 2,-0.896 2,-2c0,-1.104 -0.896,-2 -2,-2Z"/><path d="M23,32l5,0l4,5l4,-5l5,0l2,2l0,4l-2,2l-18,0l-2,-2l0,-4l2,-2Zm14.268,6.75c-0.912,-0.576 -1.518,-1.593 -1.518,-2.75c0,-1.157 0.606,-2.174 1.518,-2.75l-0.667,0l-3.625,4.531l-1.952,-0c-0,-0 -3.625,-4.531 -3.625,-4.531l-3.881,-0c-0,-0 -1.268,1.268 -1.268,1.268c0,-0 0,2.964 0,2.964l1.268,1.268l13.75,-0Zm1.732,-4.75c-1.104,0 -2,0.896 -2,2c0,1.104 0.896,2 2,2c1.104,0 2,-0.896 2,-2c0,-1.104 -0.896,-2 -2,-2Z"/><path d="M32,34l-4,-5l2,-0l0,-8l4,0l0,8l2,0l-4,5Z"/><path d="M32,34l-4,-5l2,-0l0,-8l4,0l0,8l2,0l-4,5Zm-1.399,-3.75l1.399,1.749l1.399,-1.749l-0.649,0l0,-8l-1.5,0l-0,8l-0.649,0Z"/></g></svg>