<?xml version="1.0" encoding="UTF-8" standalone="no"?><!DOCTYPE svg PUBLIC "-//W3C//DTD SVG 1.1//EN" "http://www.w3.org/Graphics/SVG/1.1/DTD/svg11.dtd"><svg width="100%" height="100%" viewBox="0 0 64 64" version="1.1" xmlns="http://www.w3.org/2000/svg" xmlns:xlink="http://www.w3.org/1999/xlink" xml:space="preserve" xmlns:serif="http://www.serif.com/" style="fill-rule:evenodd;clip-rule:evenodd;stroke-linejoin:round;stroke-miterlimit:2;"><g id="Edit"><path d="M32,16c8.831,0 16,7.169 16,16c0,8.831 -7.169,16 -16,16c-8.831,0 -16,-7.169 -16,-16c0,-8.831 7.169,-16 16,-16Zm0,2.083c-7.681,0 -13.917,6.236 -13.917,13.917c0,7.681 6.236,13.917 13.917,13.917c7.681,-0 13.917,-6.236 13.917,-13.917c-0,-7.681 -6.236,-13.917 -13.917,-13.917Z"/><path d="M37.5,26.5c1,1 1,3 1,3l-9.5,10l-5,1.5l-0.5,-0.5l1.5,-5l9.5,-10c0,-0 2,-0 3,1Zm-2,-2l2,-2l2,-0l2,2l0,2l-2,2c0,-0 0,-2 -1,-3c-1,-1 -3,-1 -3,-1Z"/><path d="M37.5,26.5c1,1 1,3 1,3l-9.5,10l-5,1.5l-0.5,-0.5l1.5,-5l9.5,-10c0,-0 2,-0 3,1Zm-12.35,12.85l3.173,-0.952c-0,0 8.893,-9.361 8.893,-9.362c-0.024,-0.204 -0.066,-0.456 -0.138,-0.719c-0.089,-0.327 -0.214,-0.686 -0.462,-0.933c-0.247,-0.248 -0.606,-0.373 -0.933,-0.462c-0.247,-0.067 -0.486,-0.108 -0.683,-0.133l-8.888,9.356l-0.962,3.205Zm10.35,-14.85l2,-2l2,-0l2,2l0,2l-2,2c0,-0 0,-2 -1,-3c-1,-1 -3,-1 -3,-1Zm3.884,0.116c0.381,0.382 0.657,0.873 0.855,1.377l0.011,-0.011c0,0 0,-0.964 -0,-0.964l-1.268,-1.268l-0.964,-0l-0.011,0.011c0.504,0.198 0.995,0.474 1.377,0.855Z"/></g></svg>