<?xml version="1.0" encoding="UTF-8" standalone="no"?><!DOCTYPE svg PUBLIC "-//W3C//DTD SVG 1.1//EN" "http://www.w3.org/Graphics/SVG/1.1/DTD/svg11.dtd"><svg width="100%" height="100%" viewBox="0 0 64 64" version="1.1" xmlns="http://www.w3.org/2000/svg" xmlns:xlink="http://www.w3.org/1999/xlink" xml:space="preserve" xmlns:serif="http://www.serif.com/" style="fill-rule:evenodd;clip-rule:evenodd;stroke-linejoin:round;stroke-miterlimit:2;"><g id="Home"><path d="M32,16c8.831,0 16,7.169 16,16c0,8.831 -7.169,16 -16,16c-8.831,0 -16,-7.169 -16,-16c0,-8.831 7.169,-16 16,-16Zm0,2.083c-7.681,0 -13.917,6.236 -13.917,13.917c0,7.681 6.236,13.917 13.917,13.917c7.681,-0 13.917,-6.236 13.917,-13.917c-0,-7.681 -6.236,-13.917 -13.917,-13.917Z"/><path d="M32,21l-10,8l0,1l20,0l0,-1l-10,-8Z"/><path d="M32,21l10,8l0,1l-20,0l0,-1l10,-8Zm-7.687,7.75l15.374,0l-7.687,-6.149l-7.687,6.149Z"/><path d="M24,40l6.07,-0l-0.07,-6l4,0l-0.017,6l6.017,0l0,-11l-16,0l0,11Z"/><path d="M24,40l0,-11l16,0l0,11l-6.017,-0l0.017,-6l-4,0l0.07,6l-6.07,0Zm1.25,-1.25l3.555,0l-0.055,-4.735c-0.004,-0.334 0.126,-0.656 0.361,-0.894c0.235,-0.237 0.555,-0.371 0.889,-0.371l4,0c0.332,-0 0.651,0.132 0.885,0.367c0.235,0.236 0.366,0.554 0.365,0.887c-0,-0 -0.014,4.746 -0.014,4.746l3.514,0l-0,-8.5l-13.5,-0l0,8.5Z"/></g></svg>