<?xml version="1.0" encoding="UTF-8" standalone="no"?><!DOCTYPE svg PUBLIC "-//W3C//DTD SVG 1.1//EN" "http://www.w3.org/Graphics/SVG/1.1/DTD/svg11.dtd"><svg width="100%" height="100%" viewBox="0 0 64 64" version="1.1" xmlns="http://www.w3.org/2000/svg" xmlns:xlink="http://www.w3.org/1999/xlink" xml:space="preserve" xmlns:serif="http://www.serif.com/" style="fill-rule:evenodd;clip-rule:evenodd;stroke-linejoin:round;stroke-miterlimit:2;"><g id="Information"><path d="M32,16c8.831,0 16,7.169 16,16c0,8.831 -7.169,16 -16,16c-8.831,0 -16,-7.169 -16,-16c0,-8.831 7.169,-16 16,-16Zm0,2.083c-7.681,0 -13.917,6.236 -13.917,13.917c0,7.681 6.236,13.917 13.917,13.917c7.681,-0 13.917,-6.236 13.917,-13.917c-0,-7.681 -6.236,-13.917 -13.917,-13.917Z"/><rect x="30" y="30" width="4" height="12"/><path d="M30,42l0,-12l4,0l0,12l-4,0Zm1.25,-1.25c0,-0 1.5,-0 1.5,0l0,-9.5c0,-0 -1.5,-0 -1.5,-0l0,9.5Z"/><circle cx="32" cy="24.5" r="2.5"/><path d="M32,22c1.38,0 2.5,1.12 2.5,2.5c-0,1.38 -1.12,2.5 -2.5,2.5c-1.38,0 -2.5,-1.12 -2.5,-2.5c0,-1.38 1.12,-2.5 2.5,-2.5Zm-0,1.25c-0.69,0 -1.25,0.56 -1.25,1.25c0,0.69 0.56,1.25 1.25,1.25c0.69,0 1.25,-0.56 1.25,-1.25c-0,-0.69 -0.56,-1.25 -1.25,-1.25Z"/></g></svg>