<?xml version="1.0" encoding="UTF-8" standalone="no"?><!DOCTYPE svg PUBLIC "-//W3C//DTD SVG 1.1//EN" "http://www.w3.org/Graphics/SVG/1.1/DTD/svg11.dtd"><svg width="100%" height="100%" viewBox="0 0 64 64" version="1.1" xmlns="http://www.w3.org/2000/svg" xmlns:xlink="http://www.w3.org/1999/xlink" xml:space="preserve" xmlns:serif="http://www.serif.com/" style="fill-rule:evenodd;clip-rule:evenodd;stroke-linejoin:round;stroke-miterlimit:2;"><g id="Next"><path d="M32,16c8.831,0 16,7.169 16,16c0,8.831 -7.169,16 -16,16c-8.831,0 -16,-7.169 -16,-16c0,-8.831 7.169,-16 16,-16Zm0,2.083c-7.681,0 -13.917,6.236 -13.917,13.917c0,7.681 6.236,13.917 13.917,13.917c7.681,-0 13.917,-6.236 13.917,-13.917c-0,-7.681 -6.236,-13.917 -13.917,-13.917Z"/><path d="M41,32l-8,-8l0,4l4,4l-4,4l0,4l8,-8Z"/><path d="M41,32l-8,8l0,-4l4,-4l-4,-4l0,-4l8,8Zm-1.768,0l-4.982,-4.982c0,-0 0,0.464 0,0.464l4.518,4.518l-4.518,4.518l0,0.464l4.982,-4.982Z"/><path d="M33,32l-8,-8l0,4l4,4l-4,4l0,4l8,-8Z"/><path d="M33,32l-8,8l0,-4l4,-4l-4,-4l0,-4l8,8Zm-1.768,0l-4.982,-4.982c0,-0 0,0.464 0,0.464l4.518,4.518l-4.518,4.518l0,0.464l4.982,-4.982Z"/></g></svg>