<?xml version="1.0" encoding="UTF-8" standalone="no"?><!DOCTYPE svg PUBLIC "-//W3C//DTD SVG 1.1//EN" "http://www.w3.org/Graphics/SVG/1.1/DTD/svg11.dtd"><svg width="100%" height="100%" viewBox="0 0 64 64" version="1.1" xmlns="http://www.w3.org/2000/svg" xmlns:xlink="http://www.w3.org/1999/xlink" xml:space="preserve" xmlns:serif="http://www.serif.com/" style="fill-rule:evenodd;clip-rule:evenodd;stroke-linejoin:round;stroke-miterlimit:2;"><g id="Plus"><path d="M32,16c8.831,0 16,7.169 16,16c0,8.831 -7.169,16 -16,16c-8.831,0 -16,-7.169 -16,-16c0,-8.831 7.169,-16 16,-16Zm0,2.083c-7.681,0 -13.917,6.236 -13.917,13.917c0,7.681 6.236,13.917 13.917,13.917c7.681,-0 13.917,-6.236 13.917,-13.917c-0,-7.681 -6.236,-13.917 -13.917,-13.917Z"/><path d="M30,24l0,6l-6,0l0,4l6,0l0,6l4,0l0,-6l6,0l0,-4l-6,0l0,-6l-4,0Z"/><path d="M30,30l0,-6l4,0l0,6l6,0l0,4l-6,0l0,6l-4,0l0,-6l-6,0l0,-4l6,0Zm1.25,-4.75l0,6l-6,-0c-0,-0 0,1.5 -0,1.5l6,0l-0,6c-0,0 1.5,0 1.5,0l0,-6l6,0c0,0 0,-1.5 0,-1.5l-6,0c0,0 0,-6 -0,-6l-1.5,0Z"/></g></svg>