<?xml version="1.0" encoding="UTF-8" standalone="no"?><!DOCTYPE svg PUBLIC "-//W3C//DTD SVG 1.1//EN" "http://www.w3.org/Graphics/SVG/1.1/DTD/svg11.dtd"><svg width="100%" height="100%" viewBox="0 0 64 64" version="1.1" xmlns="http://www.w3.org/2000/svg" xmlns:xlink="http://www.w3.org/1999/xlink" xml:space="preserve" xmlns:serif="http://www.serif.com/" style="fill-rule:evenodd;clip-rule:evenodd;stroke-linejoin:round;stroke-miterlimit:2;"><g id="Save"><path d="M32,16c8.831,0 16,7.169 16,16c0,8.831 -7.169,16 -16,16c-8.831,0 -16,-7.169 -16,-16c0,-8.831 7.169,-16 16,-16Zm0,2.083c-7.681,0 -13.917,6.236 -13.917,13.917c0,7.681 6.236,13.917 13.917,13.917c7.681,-0 13.917,-6.236 13.917,-13.917c-0,-7.681 -6.236,-13.917 -13.917,-13.917Z"/><path d="M24,40l0,-16l12,0l4,4l0,12l-16,0Zm3,-13l-0,3l7,0l-0,-3l-7,0Zm5,5c-1.38,0 -2.5,1.12 -2.5,2.5c0,1.38 1.12,2.5 2.5,2.5c1.38,0 2.5,-1.12 2.5,-2.5c0,-1.38 -1.12,-2.5 -2.5,-2.5Z"/><path d="M24,40l0,-16l12,0l4,4l0,12l-16,0Zm1.25,-1.25l13.5,0l-0,-10.232l-3.268,-3.268l-10.232,0l-0,13.5Zm8.621,-7.5c1.123,0.648 1.879,1.861 1.879,3.25c0,2.07 -1.68,3.75 -3.75,3.75c-2.07,0 -3.75,-1.68 -3.75,-3.75c0,-1.389 0.756,-2.602 1.879,-3.25l-3.129,0c-0.69,-0 -1.25,-0.56 -1.25,-1.25l-0,-3c0,-0.69 0.56,-1.25 1.25,-1.25l7,0c0.69,0 1.25,0.56 1.25,1.25l-0,3c-0,0.69 -0.56,1.25 -1.25,1.25l-0.129,0Zm-6.871,-4.25l-0,3l7,0l-0,-3l-7,0Zm5,5c-1.38,0 -2.5,1.12 -2.5,2.5c0,1.38 1.12,2.5 2.5,2.5c1.38,0 2.5,-1.12 2.5,-2.5c0,-1.38 -1.12,-2.5 -2.5,-2.5Z"/></g></svg>