<?xml version="1.0" encoding="UTF-8" standalone="no"?><!DOCTYPE svg PUBLIC "-//W3C//DTD SVG 1.1//EN" "http://www.w3.org/Graphics/SVG/1.1/DTD/svg11.dtd"><svg width="100%" height="100%" viewBox="0 0 64 64" version="1.1" xmlns="http://www.w3.org/2000/svg" xmlns:xlink="http://www.w3.org/1999/xlink" xml:space="preserve" xmlns:serif="http://www.serif.com/" style="fill-rule:evenodd;clip-rule:evenodd;stroke-linejoin:round;stroke-miterlimit:2;"><g id="Boss"><path d="M32,16c8.831,0 16,7.169 16,16c0,8.831 -7.169,16 -16,16c-8.831,0 -16,-7.169 -16,-16c0,-8.831 7.169,-16 16,-16Zm0,2.083c-7.681,0 -13.917,6.236 -13.917,13.917c0,7.681 6.236,13.917 13.917,13.917c7.681,-0 13.917,-6.236 13.917,-13.917c-0,-7.681 -6.236,-13.917 -13.917,-13.917Z"/><path d="M36,18l4,2l4,4l0,8l-6,4l0,6l-2,2l-8,0l-2,-2l0,-6l-6,-4l0,-8l4,-4l4,-2l8,0Zm5,9l-7,2l1,2l6,0l0,-4Zm-8,4l-2,0l-1,4l4,0l-1,-4Zm-3,6l-2,2l0,2l8,0l0,-2l-2,-2l-4,0Zm-7,-10l0,4l6,0l1,-2l-7,-2Z"/><path d="M36,18l4,2l4,4l0,8l-6,4l0,6l-2,2l-8,0l-2,-2l0,-6l-6,-4l0,-8l4,-4l4,-2l8,0Zm-0.098,0.417l-7.804,-0l-3.851,1.925c-0,0 -3.83,3.831 -3.83,3.831l-0,7.604l5.814,3.876c0.116,0.078 0.186,0.208 0.186,0.347l-0,5.827c-0,0 1.756,1.756 1.756,1.756l7.654,0l1.756,-1.756l0,-5.827c0,-0.139 0.07,-0.269 0.186,-0.347l5.814,-3.876l0,-7.604l-3.83,-3.831l-3.851,-1.925Zm-2.498,12.482l1,4c0.031,0.124 0.003,0.256 -0.076,0.357c-0.079,0.102 -0.2,0.161 -0.328,0.161l-4,-0c-0.128,-0 -0.249,-0.059 -0.328,-0.161c-0.079,-0.101 -0.107,-0.233 -0.076,-0.357l1,-4c0.046,-0.186 0.213,-0.316 0.404,-0.316l2,0c0.191,0 0.358,0.13 0.404,0.316Zm-0.404,0.101l-2,0l-1,4l4,0l-1,-4Zm8.417,-4l-0,4c-0,0.23 -0.187,0.417 -0.417,0.417l-6,-0c-0.158,-0 -0.302,-0.09 -0.373,-0.231l-1,-2c-0.055,-0.111 -0.058,-0.24 -0.008,-0.354c0.05,-0.113 0.147,-0.199 0.267,-0.233l7,-2c0.125,-0.036 0.261,-0.01 0.365,0.068c0.104,0.079 0.166,0.202 0.166,0.333Zm-0.417,0l-7,2l1,2l6,0l0,-4Zm-11,9.583l4,0c0.111,0 0.216,0.044 0.295,0.122l2,2c0.078,0.079 0.122,0.184 0.122,0.295l-0,2c-0,0.23 -0.187,0.417 -0.417,0.417l-8,-0c-0.23,-0 -0.417,-0.187 -0.417,-0.417l0,-2c0,-0.111 0.044,-0.216 0.122,-0.295l2,-2c0.079,-0.078 0.184,-0.122 0.295,-0.122Zm0,0.417l-2,2l0,2l8,0l0,-2l-2,-2l-4,0Zm-6.886,-10.401l7,2c0.12,0.034 0.217,0.12 0.267,0.233c0.05,0.114 0.047,0.243 -0.008,0.354l-1,2c-0.071,0.141 -0.215,0.231 -0.373,0.231l-6,-0c-0.23,-0 -0.417,-0.187 -0.417,-0.417l0,-4c0,-0.131 0.062,-0.254 0.166,-0.333c0.104,-0.078 0.24,-0.104 0.365,-0.068Zm-0.114,0.401l0,4l6,0l1,-2l-7,-2Z"/></g></svg>