<?xml version="1.0" encoding="UTF-8" standalone="no"?><!DOCTYPE svg PUBLIC "-//W3C//DTD SVG 1.1//EN" "http://www.w3.org/Graphics/SVG/1.1/DTD/svg11.dtd"><svg width="100%" height="100%" viewBox="0 0 64 64" version="1.1" xmlns="http://www.w3.org/2000/svg" xmlns:xlink="http://www.w3.org/1999/xlink" xml:space="preserve" xmlns:serif="http://www.serif.com/" style="fill-rule:evenodd;clip-rule:evenodd;stroke-linejoin:round;stroke-miterlimit:2;"><g id="Encounter"><path d="M41.899,22.101l-3.535,0.707l-12.021,12.02l-1.414,-1.414l-1.414,0l-0,1.414l1.414,1.415l-0,1.414l-1.414,1.414l-2.122,0.707l0.708,2.121l2.121,0.708l0.707,-2.122l1.414,-1.414l1.414,0l1.415,1.414l1.414,0l-0,-1.414l-1.414,-1.414l12.02,-12.021l0.707,-3.535Z"/><path d="M41.899,22.101l-0.707,3.535l-12.02,12.021l1.414,1.414l-0,1.414l-1.414,0l-1.415,-1.414l-1.414,0l-1.414,1.414l-0.707,2.122l-2.121,-0.708l-0.708,-2.121l2.122,-0.707l1.414,-1.414l-0,-1.414l-1.414,-1.415l-0,-1.414l1.414,0l1.414,1.414l12.021,-12.02l3.535,-0.707Zm-14.887,14.887l0.186,-0c0.039,-0.114 0.087,-0.225 0.146,-0.332c-0.107,0.059 -0.218,0.107 -0.332,0.146l0,0.186Z"/><path d="M22.101,22.101l0.707,3.535l12.02,12.021l-1.414,1.414l0,1.414l1.414,0l1.415,-1.414l1.414,0l1.414,1.414l0.707,2.122l2.121,-0.708l0.708,-2.121l-2.122,-0.707l-1.414,-1.414l0,-1.414l1.414,-1.415l0,-1.414l-1.414,0l-1.414,1.414l-12.021,-12.02l-3.535,-0.707Z"/><path d="M22.101,22.101l3.535,0.707l12.021,12.02l1.414,-1.414l1.414,0l0,1.414l-1.414,1.415l0,1.414l1.414,1.414l2.122,0.707l-0.708,2.121l-2.121,0.708l-0.707,-2.122l-1.414,-1.414l-1.414,0l-1.415,1.414l-1.414,0l0,-1.414l1.414,-1.414l-12.02,-12.021l-0.707,-3.535Zm14.555,14.555c0.059,0.107 0.107,0.218 0.146,0.332l0.186,-0l-0,-0.186c-0.114,-0.039 -0.225,-0.087 -0.332,-0.146Z"/><path d="M32,16c8.831,0 16,7.169 16,16c0,8.831 -7.169,16 -16,16c-8.831,0 -16,-7.169 -16,-16c0,-8.831 7.169,-16 16,-16Zm0,2.083c-7.681,0 -13.917,6.236 -13.917,13.917c0,7.681 6.236,13.917 13.917,13.917c7.681,-0 13.917,-6.236 13.917,-13.917c-0,-7.681 -6.236,-13.917 -13.917,-13.917Z"/></g></svg>