<?xml version="1.0" encoding="UTF-8" standalone="no"?><!DOCTYPE svg PUBLIC "-//W3C//DTD SVG 1.1//EN" "http://www.w3.org/Graphics/SVG/1.1/DTD/svg11.dtd"><svg width="100%" height="100%" viewBox="0 0 64 64" version="1.1" xmlns="http://www.w3.org/2000/svg" xmlns:xlink="http://www.w3.org/1999/xlink" xml:space="preserve" xmlns:serif="http://www.serif.com/" style="fill-rule:evenodd;clip-rule:evenodd;stroke-linejoin:round;stroke-miterlimit:2;"><g id="Event"><path d="M16,32l10.667,0l5.333,13.333l5.333,-13.333l10.667,0c-0,8.831 -7.169,16 -16,16c-8.831,0 -16,-7.169 -16,-16Z"/><path d="M16,32l10.667,0l5.333,13.333l5.333,-13.333l10.667,0c-0,8.831 -7.169,16 -16,16c-8.831,0 -16,-7.169 -16,-16Zm18.072,13.763c6.02,-0.9 10.784,-5.661 11.689,-11.68l-7.017,0l-4.672,11.68Zm-4.144,0l-4.672,-11.68l-7.017,0c0.905,6.019 5.669,10.78 11.689,11.68Z"/><path d="M32,48c-8.831,0 -16,-7.169 -16,-16c-0,-8.831 7.169,-16 16,-16c8.831,0 16,7.169 16,16c-0,8.831 -7.169,16 -16,16Zm-0,-2.083c7.681,-0 13.917,-6.236 13.917,-13.917c-0,-7.681 -6.236,-13.917 -13.917,-13.917c-7.681,0 -13.917,6.236 -13.917,13.917c0,7.681 6.236,13.917 13.917,13.917Z"/><path d="M37.333,32l-10.666,0l5.333,-13.333l5.333,13.333Z"/><path d="M37.333,32l-10.666,0l5.333,-13.333l5.333,13.333Zm-3.077,-2.083l-2.256,-5.641l-2.256,5.641l4.512,-0Z"/></g></svg>