<?xml version="1.0" encoding="UTF-8" standalone="no"?><!DOCTYPE svg PUBLIC "-//W3C//DTD SVG 1.1//EN" "http://www.w3.org/Graphics/SVG/1.1/DTD/svg11.dtd"><svg width="100%" height="100%" viewBox="0 0 64 64" version="1.1" xmlns="http://www.w3.org/2000/svg" xmlns:xlink="http://www.w3.org/1999/xlink" xml:space="preserve" xmlns:serif="http://www.serif.com/" style="fill-rule:evenodd;clip-rule:evenodd;stroke-linejoin:round;stroke-miterlimit:2;"><g id="Locked"><path d="M32,0c17.661,0 32,14.339 32,32c-0,17.661 -14.339,32 -32,32c-17.661,-0 -32,-14.339 -32,-32c0,-17.661 14.339,-32 32,-32Zm-0,2.083c-16.511,0 -29.917,13.406 -29.917,29.917c0,16.511 13.406,29.917 29.917,29.917c16.511,-0 29.917,-13.406 29.917,-29.917c-0,-16.511 -13.406,-29.917 -29.917,-29.917Z"/><path d="M16,48l0,-18l6,-4l20,0l6,4l0,18l-8,4l-14,0l-10,-4Zm13.779,-10.674l-1.779,10.674l8,0l-1.779,-10.674c1.072,-0.717 1.779,-1.94 1.779,-3.326c0,-2.208 -1.751,-4 -3.958,-4c-2.208,-0 -4.042,1.792 -4.042,4c0,1.386 0.707,2.609 1.779,3.326Z"/><path d="M16,48l0,-18l6,-4l20,0l6,4l0,18l-8,4l-14,0l-10,-4Zm0.417,-0.282l9.663,3.865l13.822,0l7.681,-3.841l0,-17.519l-5.709,-3.806l-15.763,-0l-3.985,-0l-5.709,3.806l-0,17.495Zm12.908,-10.204c-1.058,-0.807 -1.742,-2.081 -1.742,-3.514c0,-2.436 2.022,-4.417 4.459,-4.417c2.438,0 4.375,1.978 4.375,4.417c-0,1.433 -0.684,2.707 -1.742,3.514l1.736,10.418c0.02,0.12 -0.014,0.244 -0.093,0.337c-0.079,0.094 -0.196,0.148 -0.318,0.148l-8,-0c-0.122,-0 -0.239,-0.054 -0.318,-0.148c-0.079,-0.093 -0.113,-0.217 -0.093,-0.337l1.736,-10.418Zm0.454,-0.188l-1.779,10.674l8,0l-1.779,-10.674c1.072,-0.717 1.779,-1.94 1.779,-3.326c0,-2.208 -1.751,-4 -3.958,-4c-2.208,-0 -4.042,1.792 -4.042,4c0,1.386 0.707,2.609 1.779,3.326Z"/><path d="M22,28l0,-6c0,0 0,-10 10,-10c10,0 10,10 10,10l0,6l-4,0l0,-6c0,0 0,-6 -6,-6c-6,0 -6,6 -6,6l0,6l-4,0Z"/></g></svg>