<?xml version="1.0" encoding="UTF-8" standalone="no"?><!DOCTYPE svg PUBLIC "-//W3C//DTD SVG 1.1//EN" "http://www.w3.org/Graphics/SVG/1.1/DTD/svg11.dtd"><svg width="100%" height="100%" viewBox="0 0 64 64" version="1.1" xmlns="http://www.w3.org/2000/svg" xmlns:xlink="http://www.w3.org/1999/xlink" xml:space="preserve" xmlns:serif="http://www.serif.com/" style="fill-rule:evenodd;clip-rule:evenodd;stroke-linejoin:round;stroke-miterlimit:2;"><g id="Stairs_Up"><path d="M26,28l-6,-4l6,0l-0,4Zm6,4l-6,-4l6,0l0,4Zm6,4l-6,-4l6,0l0,4Zm0,0l6,0l0,4l-6,-4Z"/><path d="M32,48c-8.831,-0 -16,-7.169 -16,-16c-0,-8.831 7.169,-16 16,-16c8.831,-0 16,7.169 16,16c-0,8.831 -7.169,16 -16,16Zm-0,-2.083c7.681,-0 13.917,-6.236 13.917,-13.917c-0,-7.681 -6.236,-13.917 -13.917,-13.917c-7.681,0 -13.917,6.236 -13.917,13.917c0,7.681 6.236,13.917 13.917,13.917Z"/><path d="M45.3,40.893c-2.872,4.284 -7.759,7.107 -13.3,7.107c-8.831,-0 -16,-7.169 -16,-16c0,-3.285 0.992,-6.34 2.693,-8.882l26.607,17.775Zm-13.3,-4.893l-4,5l2,0l-0,5l4,0l0,-5l2,0l-4,-5Z"/><path d="M45.3,40.893c-2.872,4.284 -7.759,7.107 -13.3,7.107c-8.831,-0 -16,-7.169 -16,-16c0,-3.285 0.992,-6.34 2.693,-8.882l26.607,17.775Zm-10.124,-4.258l2.451,3.064c0.5,0.625 0.598,1.482 0.251,2.203c-0.335,0.697 -1.027,1.149 -1.795,1.18l0,2.225c2.407,-0.739 4.537,-2.114 6.194,-3.928l-7.101,-4.744Zm-3.176,-0.635l-4,5l2,-0l0,5l4,-0l0,-5l2,-0l-4,-5Zm-4.083,9.307l-0,-2.225c-0.768,-0.031 -1.46,-0.483 -1.795,-1.18c-0.347,-0.721 -0.249,-1.578 0.251,-2.203l4,-5c0.243,-0.304 0.563,-0.53 0.92,-0.659c-5.868,-3.92 -11.896,-7.947 -11.896,-7.947c-0.843,1.794 -1.314,3.796 -1.314,5.907c0,6.26 4.143,11.56 9.834,13.307Z"/></g></svg>