<?xml version="1.0" encoding="UTF-8" standalone="no"?><!DOCTYPE svg PUBLIC "-//W3C//DTD SVG 1.1//EN" "http://www.w3.org/Graphics/SVG/1.1/DTD/svg11.dtd"><svg width="100%" height="100%" viewBox="0 0 64 64" version="1.1" xmlns="http://www.w3.org/2000/svg" xmlns:xlink="http://www.w3.org/1999/xlink" xml:space="preserve" xmlns:serif="http://www.serif.com/" style="fill-rule:evenodd;clip-rule:evenodd;stroke-linejoin:round;stroke-miterlimit:2;"><g id="Trapped"><path d="M32,0c17.661,0 32,14.339 32,32c-0,17.661 -14.339,32 -32,32c-17.661,-0 -32,-14.339 -32,-32c0,-17.661 14.339,-32 32,-32Zm0,2.083c-16.511,0 -29.917,13.406 -29.917,29.917c0,16.511 13.406,29.917 29.917,29.917c16.511,-0 29.917,-13.406 29.917,-29.917c-0,-16.511 -13.406,-29.917 -29.917,-29.917Z"/><path d="M-0,32c-0,-2.92 0.392,-5.749 1.126,-8.437l3.195,4.437l13.679,-6l-4,16l12,-4l-3.101,10.852c-0.407,0.891 -0.687,1.852 -0.817,2.86l-0.082,0.288l0.049,0c-0.032,0.329 -0.049,0.663 -0.049,1c0,5.519 4.481,10 10,10c5.519,-0 10,-4.481 10,-10c-0,-0.337 -0.017,-0.671 -0.049,-1l0.049,-0l-0.082,-0.288c-0.13,-1.008 -0.41,-1.969 -0.817,-2.86l-3.101,-10.852l12,4l-4,-16l13.736,6l3.142,-4.422c0.732,2.684 1.122,5.508 1.122,8.422c-0,13.74 -8.678,25.469 -20.848,30l-22.304,-0c-12.17,-4.531 -20.848,-16.26 -20.848,-30Zm32,10c3.756,-0 6.806,3.05 6.806,6.806c0,3.757 -3.05,6.806 -6.806,6.806c-3.756,0 -6.806,-3.049 -6.806,-6.806c-0,-3.756 3.05,-6.806 6.806,-6.806Z"/><path d="M32,42c3.756,-0 6.806,3.05 6.806,6.806c0,3.757 -3.05,6.806 -6.806,6.806c-3.756,0 -6.806,-3.049 -6.806,-6.806c-0,-3.756 3.05,-6.806 6.806,-6.806Zm-0,3.125c-2.032,-0 -3.681,1.65 -3.681,3.681c-0,2.032 1.649,3.681 3.681,3.681c2.032,0 3.681,-1.649 3.681,-3.681c0,-2.031 -1.649,-3.681 -3.681,-3.681Zm9.843,5.646c0.103,-0.575 0.157,-1.167 0.157,-1.771c-0,-0.337 -0.017,-0.671 -0.049,-1l0.049,-0l-0.082,-0.288c-0.13,-1.008 -0.41,-1.969 -0.817,-2.86l-3.101,-10.852l12,4l-4,-16l13.736,6l3.142,-4.422c0.732,2.684 1.122,5.508 1.122,8.422c-0,13.74 -8.678,25.469 -20.848,30l-22.304,-0c-12.17,-4.531 -20.848,-16.26 -20.848,-30c-0,-2.92 0.392,-5.749 1.126,-8.437l3.195,4.437l13.679,-6l-4,16l12,-4l-3.101,10.852c-0.407,0.891 -0.687,1.852 -0.817,2.86l-0.082,0.288l0.049,0c-0.032,0.329 -0.049,0.663 -0.049,1c0,0.677 0.067,1.338 0.196,1.977l-0.147,0.111l0,0.037l0.149,-0.135c0.924,4.567 4.964,8.01 9.802,8.01c4.792,-0 8.801,-3.378 9.774,-7.88c0.059,0.003 0.117,0.005 0.177,0.005l-0,-0.037l-0.147,-0.111c0.013,-0.066 0.026,-0.131 0.038,-0.197l0.076,0.057l-0.075,-0.066Zm-18.485,8.104c-2.747,-2.406 -4.483,-5.94 -4.483,-9.875c0,-0.442 0.022,-0.879 0.065,-1.309l0.017,0.019c0,-0.132 0.009,-0.265 0.026,-0.398c0.007,-0.055 0.015,-0.111 0.023,-0.166l-0.009,-0.011l0.02,-0.071c0.171,-1.151 0.491,-2.253 0.938,-3.281c-0,0 1.413,-4.945 1.413,-4.945l-6.38,2.127c-1.082,0.36 -2.274,0.103 -3.111,-0.672c-0.837,-0.775 -1.185,-1.944 -0.909,-3.051l2.456,-9.822l-7.848,3.442c-0.795,0.349 -1.669,0.342 -2.43,0.034c-0.014,0.366 -0.021,0.734 -0.021,1.104c-0,12.205 7.588,22.651 18.301,26.875l1.932,-0Zm21.625,-11.811l0.02,0.071l-0.009,0.011c0.008,0.055 0.016,0.111 0.023,0.166l-1.023,1.164l-1.75,2.325l2.816,-3.11c0.043,0.43 0.065,0.867 0.065,1.309c-0,3.935 -1.736,7.468 -4.482,9.875c1.197,-0.001 1.933,-0.001 1.933,-0.001c10.711,-4.224 18.299,-14.67 18.299,-26.874c-0,-0.362 -0.007,-0.723 -0.02,-1.082c-0.746,0.286 -1.595,0.284 -2.37,-0.054l-7.912,-3.456l2.459,9.834c0.276,1.107 -0.072,2.276 -0.909,3.051c-0.837,0.775 -2.029,1.032 -3.111,0.672l-6.38,-2.127c0,0 1.41,4.934 1.411,4.94c0.449,1.033 0.769,2.135 0.94,3.286Z"/></g></svg>